<svg xmlns="http://www.w3.org/2000/svg" viewBox="0 0 24 24">
  <path fill="#EE4D2D" d="M12.003 4.417c-2.327 0-4.225 1.88-4.254 4.195H7v11.838h10V8.61h-.746c-.029-2.316-1.928-4.194-4.251-4.194zm0 .878c1.862 0 3.376 1.488 3.376 3.318H8.627c0-1.83 1.514-3.318 3.376-3.318zm-2.128 5.672h1.34c.148-1.558 1.493-2.735 3.033-2.614 1.378.109 2.455 1.259 2.502 2.651h.001c.026.852-.375 1.637-1.077 2.13-.535.378-1.2.668-2.003.882l-2.02.505c-1.393.348-2.433 1.545-2.522 2.946-.11 1.764 1.144 3.25 2.872 3.407 1.916.173 3.597-1.264 3.754-3.15h-1.332c-.13 1.228-1.157 2.158-2.378 2.135-1.1-.02-2.028-.862-2.158-1.956-.126-1.05.626-1.983 1.666-2.24l2.02-.505c1.472-.368 2.574-1.63 2.645-3.116.096-2.016-1.428-3.778-3.415-3.931-2.195-.169-4.102 1.464-4.257 3.633z"/>
</svg>