<svg xmlns="http://www.w3.org/2000/svg" viewBox="0 0 2500 2500">
  <path fill="#EE4D2D" d="M1250 2500c690.36 0 1250-559.64 1250-1250S1940.36 0 1250 0 0 559.64 0 1250s559.64 1250 1250 1250z"/>
  <path fill="#FEFEFE" d="M1726.65 1010.45l-40.45-212.3c-5.7-29.28-31.06-50.44-60.84-50.44H874.64c-29.77 0-55.13 21.16-60.84 50.44l-40.45 212.3c-28.74 38.07-59.25 109.84-38.3 194.27l133.4 532.74c10.46 41.72 48.06 70.82 91.13 70.82h580.84c43.08 0 80.68-29.1 91.14-70.82l133.4-532.74c20.95-84.43-9.56-156.2-38.32-194.27z"/>
  <path fill="#EE4D2D" d="M1520.25 747.7h-540.5c34.8-67.4 97.2-114.7 170.8-124.7 4.2-.6 8.5-1 12.8-1 92.4 0 171.7 54.4 208.5 132.8.2.5.5 1 .7 1.5 6.7 15.1 27.2 60 147.7 87.7-18.3-88.7-88.8-159.2-177.5-177.5-3.3-.7-6.7-1.3-10-1.8-6.1-1-12.4-1.7-18.7-2.3-5.2-.5-10.4-.8-15.7-1.1-4.1-.2-8.3-.3-12.5-.3h-1c-4.2 0-8.4.1-12.5.3-5.3.3-10.5.6-15.7 1.1-6.3.6-12.6 1.3-18.7 2.3-3.3.5-6.7 1.1-10 1.8-88.7 18.3-159.2 88.8-177.5 177.5H799.3c18.3 88.7 88.8 159.2 177.5 177.5 3.3.7 6.7 1.3 10 1.8 6.1 1 12.4 1.7 18.7 2.3 5.2.5 10.4.8 15.7 1.1 4.1.2 8.3.3 12.5.3h1c4.2 0 8.4-.1 12.5-.3 5.3-.3 10.5-.6 15.7-1.1 6.3-.6 12.6-1.3 18.7-2.3 3.3-.5 6.7-1.1 10-1.8 88.7-18.3 159.2-88.8 177.5-177.5z"/>
  <path fill="#FEFEFE" d="M1293.7 1318.9c32-5.7 62-15.8 81.3-26.6 22-12.3 49.6-32.9 49.6-70.1 0-77.9-74.9-97.9-158-105.8-38.3-3.6-77.8-8.7-77.8-23.9 0-15.8 21.8-18.5 45.3-18.5 28.6 0 54.1 6 74 15.3l31-52.6c-27.2-14.7-65.7-24-105-24-71.3 0-128.8 28.8-128.8 91.5 0 81.1 85.2 92.6 161.8 102.3 39.2 5 74 7 74 24 0 16.9-25.1 22.9-56.1 22.9-46.8 0-81.1-13.6-103.5-27.2l-33.8 54.4c29.4 17.4 83.3 35.4 137.7 35.4 39.2.1 77.3-6.1 108.3-17.1z"/>
</svg>